<?xml version="1.0" encoding="UTF-8"?>
<svg id="_레이어_2" data-name="레이어 2" xmlns="http://www.w3.org/2000/svg" viewBox="0 0 95.79 97.3">
  <defs>
    <style>
      .cls-1 {
        fill: #231815;
        stroke-width: 0px;
      }
    </style>
  </defs>
  <g id="_레이어_1-2" data-name="레이어 1">
    <g>
      <path class="cls-1" d="M89.32,97.3c-.23,0-.44-.05-.64-.2-.2-.16-.34-.41-.36-.67,0-.02,0-.04,0-.07-.25.04-.51.08-.72.12-1.64.28-2.18.35-2.63,0-.17-.13-.3-.35-.35-.57-.24-.04-.42-.11-.57-.23-.2-.16-.35-.45-.37-.7-.02-.26.06-.51.22-.71-.37-.04-.61-.13-.8-.28-.17-.14-.29-.31-.35-.51-.31-.04-.54-.13-.73-.28-.24-.19-.38-.46-.41-.75-.02-.21.03-.43.14-.61-.73.02-1.14-.1-1.42-.32-.24-.19-.38-.46-.4-.75-.01-.21.03-.42.14-.6-.71.02-1.11-.09-1.39-.32-.24-.19-.38-.45-.4-.75-.02-.22.03-.43.14-.62-.86.05-1.3-.05-1.62-.3-.24-.19-.38-.46-.4-.75-.02-.29.08-.58.28-.8.18-.2.44-.35.82-.47.03-.12.07-.23.14-.33-1.81.24-2.5.18-2.95-.17-.19-.15-.32-.36-.38-.59-.19-.05-.35-.12-.48-.23-.24-.19-.39-.46-.41-.76-.02-.22.04-.44.16-.63-.81.01-1.22-.09-1.5-.32-.23-.18-.36-.44-.38-.72-.02-.31.08-.61.3-.84.14-.15.33-.28.57-.39-.08-.1-.15-.21-.19-.33-1.58.18-2.23.11-2.64-.22-.23-.19-.38-.45-.4-.74-.02-.3.08-.59.29-.82.05-.05.1-.1.16-.15-.03-.02-.05-.04-.08-.06-.24-.19-.39-.46-.41-.76,0,0,0-.02,0-.03-.04-.03-.09-.06-.12-.09-.15-.12-.27-.27-.33-.45-1.27.1-1.84.01-2.2-.28-.23-.18-.37-.45-.39-.73-.02-.3.08-.59.29-.82.07-.08.16-.15.26-.22,0,0,0,0-.01-.01-.18-.14-.31-.33-.37-.55-.25-.05-.44-.13-.6-.26-.25-.19-.4-.47-.42-.78-.01-.21.03-.42.14-.6-1.67.19-2.34.12-2.77-.22-.23-.19-.38-.45-.4-.74-.02-.28.07-.55.25-.77,0-.04-.01-.09-.02-.13-.02-.29.08-.58.28-.8.12-.13.26-.24.46-.33,0,0,0-.02,0-.03-.13-.14-.22-.3-.26-.48-.21-.05-.38-.13-.52-.24-.16-.13-.28-.29-.35-.48-.48,0-.81-.1-1.06-.29-.25-.19-.41-.48-.43-.79-.03-.41.11-.71.42-.93h0c-.02-.28.07-.56.27-.78.35-.4,1-.59,2.34-.74.06-.18.18-.33.35-.45-.25-.03-.39-.1-.53-.22-.19-.16-.32-.4-.33-.65-.07-.94.83-1.15,2.31-1.5.03,0,.06-.01.09-.02.14-.27.41-.47.73-.49.07,0,.14,0,.2,0,.05,0,.11-.02.16-.03.43-.07.8-.14,1.15.14.18.14.3.35.33.57,1.24-.13,1.55-.08,1.85.17.17.14.29.35.32.56.23.03.4.11.55.23.19.15.33.41.36.65.12.04.22.1.32.17.2.16.36.46.38.71.02.28-.07.55-.26.77-.23.26-.58.43-1.18.56.06.09.11.19.15.29,1.51-.21,2.24-.17,2.69.18.24.19.39.46.41.76.01.21-.03.42-.14.6.74-.02,1.19.07,1.49.31.16.13.28.29.35.48.55.02.87.13,1.11.32.23.19.37.45.39.74.02.22-.04.43-.14.62.36.04.63.14.84.3.25.19.4.47.42.78.02.28-.07.56-.26.79.16.05.29.12.4.21.21.16.34.39.39.64.12.05.22.11.31.18.17.13.29.3.36.48.67,0,1.05.12,1.32.33.23.19.38.45.4.74,0,.03,0,.06,0,.09,0,0,.02.01.03.02.19.15.32.35.38.57.25.05.43.14.58.26.24.19.38.46.41.76.02.29-.04.53-.19.72.02.06.03.12.03.19,0,.05,0,.09,0,.14.15.13.26.29.33.47.43.03.72.12.94.29.16.12.28.28.35.46,1.02-.07,1.52.03,1.86.3.21.17.35.4.39.66.16.05.29.12.4.21.23.18.36.44.38.73.02.29-.08.57-.27.79-.25.29-.67.47-1.38.61.04.07.08.14.11.22.61,0,.96.11,1.23.32.15.12.26.26.33.43.75-.05,1.22.04,1.55.29.24.19.39.45.42.75.08.04.15.08.21.13.24.19.38.45.4.75.01.2-.03.4-.12.58.88-.06,1.4.03,1.74.3.25.19.39.46.41.77.02.21-.03.42-.14.61,0,.02.01.03.02.05.29.04.51.13.69.27.19.15.32.34.39.56.37.04.62.14.82.3.24.19.38.45.4.74,0,.13,0,.25-.04.37.11.15.17.33.18.52.02.22-.04.44-.16.64.94-.05,1.41.04,1.72.3.23.18.37.44.39.73.05.74-.41,1.11-1.44,1.33-.04.16-.12.31-.23.44-.4.45-1.17.64-2.91.79-.07.19-.21.34-.41.46.12.03.24.08.35.17.2.16.34.41.36.67.03.49-.34.92-.83.95-.1,0-.19,0-.28-.03-.09.01-.2.04-.31.06-.29.06-.54.11-.77.11ZM89.74,96.39s0,.06.02.09c0-.03-.01-.06-.02-.09h0Z"/>
      <g>
        <path class="cls-1" d="M52.15,69.26c-.85,0-1.41-.13-1.77-.41-.28-.22-.45-.53-.47-.87-.02-.34.09-.66.33-.92.38-.41,1.11-.67,2.35-.83-.02-.07-.03-.15-.04-.22-.02-.32.09-.63.31-.88.47-.51,1.51-.76,3.49-.9.04-.08.1-.15.16-.22.28-.31.77-.52,1.56-.66-.06-.12-.1-.25-.11-.39-.02-.3.08-.6.29-.83.15-.17.37-.31.66-.42.04-.21.14-.4.28-.56.21-.24.55-.41,1.05-.55.05-.15.13-.3.25-.43.37-.41,1.06-.63,2.35-.77.05-.1.11-.19.18-.28.13-.15.31-.27.54-.37.03-.21.12-.4.26-.57,0-.03,0-.06-.01-.1-.02-.29.08-.58.28-.81.33-.37.96-.58,2.12-.72-.07-.13-.11-.27-.12-.42-.02-.29.08-.57.28-.8.13-.15.3-.27.54-.37-.18-.18-.29-.41-.31-.67-.02-.3.08-.58.28-.81.32-.36.9-.56,1.95-.7-.07-.13-.12-.28-.13-.43-.01-.21.03-.41.14-.6-.04-.1-.06-.2-.07-.31,0-.04,0-.09,0-.13,0,0-.02-.01-.03-.02-.2-.16-.37-.47-.38-.72-.02-.29.08-.58.28-.81.21-.24.54-.41,1.05-.54-.1-.15-.16-.32-.17-.5-.02-.29.08-.58.28-.81.09-.1.2-.19.33-.27-.01,0-.02-.02-.03-.02-.2-.16-.37-.47-.38-.72-.02-.29.08-.57.28-.79.38-.43,1.13-.63,2.7-.77.06-.17.16-.3.31-.42,0-.01,0-.02,0-.03,0-.13,0-.25.02-.36-.11-.15-.18-.33-.19-.53-.02-.28.04-.5.17-.68-.76.03-1.16-.07-1.44-.29-.19-.16-.36-.46-.38-.71-.02-.3.08-.59.29-.82.41-.46,1.23-.67,2.89-.8.03-.07.06-.13.11-.19-.02-.07-.03-.14-.04-.21-.02-.25.06-.5.21-.7-.32-.03-.56-.11-.76-.26-.24-.19-.39-.45-.41-.75-.02-.28.07-.55.26-.76.16-.18.37-.32.69-.43.04-.37.24-.62.61-.81,0,0-.02-.01-.03-.02-.19-.14-.32-.34-.38-.56-.38-.03-.65-.12-.85-.28-.23-.18-.37-.44-.39-.73-.01-.16.01-.32.07-.46-.07-.13-.12-.27-.13-.42-.02-.28.07-.55.26-.76.06-.07.13-.13.21-.19-.01-.27.04-.48.18-.66-.57,0-.89-.1-1.13-.29-.19-.16-.36-.46-.37-.71-.02-.28.08-.56.27-.77.07-.08.14-.14.23-.21,0-.02,0-.05,0-.07,0,0-.01,0-.02-.01-.23-.18-.38-.44-.4-.74-.02-.29.08-.57.28-.8.09-.1.2-.18.33-.26,0,0,0,0,0,0-.24-.18-.38-.45-.4-.74-.02-.29.08-.57.27-.79.14-.15.32-.28.57-.38-.18-.18-.29-.41-.3-.66-.02-.27.03-.5.16-.68-.62.02-.99-.06-1.27-.28-.24-.18-.38-.45-.4-.74-.02-.28.08-.56.27-.78.29-.33.78-.52,1.68-.66-.09-.14-.14-.31-.15-.48,0,0,0,0,0,0-.06-.03-.12-.07-.17-.11-.18-.14-.3-.33-.36-.54-.29-.04-.51-.13-.69-.27-.17-.14-.3-.31-.36-.51-1.52.18-2.12.12-2.52-.19-.23-.18-.37-.44-.39-.73,0-.12,0-.25.04-.36-.11-.15-.18-.34-.19-.53-.02-.25.05-.5.2-.71-.28-.04-.49-.13-.67-.27-.19-.15-.33-.35-.38-.57-.26-.05-.46-.14-.61-.27-.15-.12-.27-.27-.34-.45-.95.05-1.42-.05-1.74-.31-.23-.19-.37-.45-.39-.74-.02-.24.05-.47.18-.66-.29-.05-.51-.14-.69-.28-.15-.12-.26-.26-.34-.42-.52-.02-.88-.12-1.14-.33-.16-.12-.28-.28-.36-.46-.79.03-1.28-.07-1.61-.32-.24-.19-.39-.45-.42-.75-.04-.02-.07-.05-.1-.07-.13-.1-.24-.22-.31-.36-1.56.15-2.4.07-2.88-.3-.12-.09-.22-.21-.29-.33-1.09.05-1.76-.07-2.15-.38-.11-.08-.2-.18-.27-.29-1.17.06-1.88-.06-2.31-.39-.12-.1-.22-.21-.3-.33-4.04.59-6.14.66-6.99,0-.04-.03-.08-.07-.12-.11-3.71.48-5.81.47-6.69-.21-.33-.25-.52-.61-.55-1-.02-.26.04-.52.16-.75-.01-.05-.02-.11-.02-.17,0-.13,0-.26.03-.39-.08-.15-.13-.32-.14-.49-.02-.35.1-.69.35-.97.3-.32.8-.56,1.57-.73-.02-.08-.03-.15-.04-.24-.03-.49.34-.92.83-.95.34-.03.64.14.81.4,1.06-.41,2.99-.55,6.23-.63.91-.16,1.8-.32,2.59-.46,6.52-1.18,9.5-1.61,10.57-.78.12.09.22.2.3.32.51.07.89.2,1.17.42.16.13.29.28.38.45.45.08.79.21,1.04.39.07.05.13.11.18.17,2.59-.24,4.06-.14,4.73.38.3.23.47.56.5.92,0,.07,0,.15,0,.22.92.03,1.54.18,1.92.48.3.23.48.56.5.92,0,.06,0,.12,0,.17.07.08.13.17.18.27.71.02,1.17.14,1.48.39.25.19.4.46.44.75.06.03.11.07.16.11.26.2.42.49.44.81,0,.11,0,.21-.02.31.12.17.19.37.21.58,0,.09,0,.17-.01.26.14.17.22.39.24.61,0,.04,0,.08,0,.12.19.16.31.38.36.62.12.05.23.11.33.18.16.13.29.29.36.47,1.24-.13,1.9-.05,2.3.27.19.15.33.35.38.58.26.05.45.14.6.26.2.16.33.37.38.61.19.05.33.13.46.22.23.19.38.45.4.74.02.22-.04.44-.16.63.65-.01,1.05.08,1.33.3.24.19.39.46.41.76.02.29-.08.58-.28.81-.13.15-.31.27-.55.37-.02.14-.07.28-.15.41,0,0,0,0,0,0,.7-.03,1.11.05,1.41.29.24.19.38.45.4.75,0,.03,0,.05,0,.08.02.01.03.02.05.03.24.18.38.45.4.74.03.44-.12.75-.48.96.04.03.09.05.13.09.24.18.38.45.4.74.02.28-.07.55-.27.77-.1.12-.23.22-.4.3.23.18.37.44.39.73.02.24-.02.44-.12.6,0,.03.02.05.03.08.76-.05,1.14.04,1.44.27.2.16.37.47.39.72.02.28-.08.56-.27.78.25.05.42.13.57.25.2.16.36.47.38.72.02.29-.08.57-.27.79-.21.23-.52.4-1.02.53.12.16.2.37.21.54,0,.07,0,.15,0,.22.17.17.3.43.32.66.04.59-.26.94-.91,1.18.14.15.25.36.29.56.16.05.29.12.41.21.2.16.36.47.38.71.02.28-.08.56-.27.78-.16.18-.38.32-.69.43-.02.14-.06.27-.13.38.03.09.05.18.06.28.02.35-.07.6-.28.8.16.05.3.12.42.21.24.18.38.45.4.74.02.26-.06.51-.23.72.28.04.49.13.67.26.24.18.38.45.4.74.02.28-.07.55-.26.77-.17.19-.39.33-.73.44.16.17.26.39.27.63.02.29-.08.58-.28.81-.13.14-.3.26-.52.36-.03.4-.27.67-.7.86t0,0c.24.18.38.45.4.74.04.5-.17.83-.64,1.06,0,.08,0,.16-.02.23.12.16.19.34.2.54.02.29-.08.58-.28.81-.18.2-.43.35-.8.47.13.16.2.36.22.57.02.29-.08.57-.27.79-.16.17-.37.31-.67.42.14.15.23.34.26.54.15.05.26.12.37.2.23.18.37.44.39.73.02.29-.08.58-.28.81-.22.24-.56.42-1.09.55-.04.16-.12.3-.24.43-.12.14-.28.25-.5.35-.02.27-.12.48-.32.65,0,.02,0,.05,0,.07.02.3-.08.58-.28.81-.18.2-.45.36-.83.48.13.16.2.36.22.57.02.29-.08.58-.28.81-.16.18-.39.32-.71.44-.02.09-.04.17-.08.25.03.07.06.13.07.21.25.05.43.14.58.26.23.19.37.45.39.74.02.31-.09.61-.3.85-.33.36-.9.57-1.9.72-.05.1-.11.2-.19.29-.29.33-.8.53-1.69.67-.05.13-.13.26-.23.37-.04.04-.08.09-.13.13,0,.29-.1.56-.3.78-.07.08-.16.15-.26.22.24.19.38.46.4.76.02.25-.05.5-.19.71.02.06.03.13.03.2.02.32-.09.64-.32.89-.39.43-1.16.68-2.49.84-.05.09-.11.17-.18.25-.07.07-.14.14-.23.2.19.19.29.44.31.7.02.34-.1.68-.34.94-.25.27-.65.47-1.24.63-.15.22-.39.36-.67.38-.2.01-.41-.04-.56-.15-1.27.16-3.03.23-5.41.27-.95.16-1.91.34-2.74.49-3.77.69-6.15,1.08-7.64,1.08Z"/>
        <path class="cls-1" d="M30.99,78.91c-.96,0-1.58-.14-1.95-.43-.21-.16-.35-.37-.42-.61-.06-.04-.12-.08-.18-.12-.01-.01-.03-.02-.04-.04-1.79.07-2.94-.09-3.53-.56,0,0,0,0-.01-.01-1.08-.06-1.87-.26-2.34-.62-.27-.21-.46-.48-.55-.78-1.85.03-3.09-.18-3.75-.69-.33-.25-.53-.58-.6-.95-.61-.13-1.08-.33-1.41-.58-.25-.2-.44-.44-.56-.7-.92,0-1.52-.14-1.88-.43-.28-.22-.44-.52-.46-.86-.02-.31.09-.61.3-.85.03-.04.07-.07.11-.1,0,0-.02-.01-.03-.02-.26-.2-.41-.48-.43-.8-.01-.19.02-.37.1-.53-1.12.1-1.75,0-2.15-.3-.25-.2-.4-.48-.42-.78-.01-.2.03-.4.12-.57-1.04.07-1.56-.02-1.9-.3-.24-.19-.38-.46-.4-.75-.02-.3.08-.6.29-.84.19-.21.46-.37.85-.49-.07-.09-.12-.19-.15-.29-.6,0-.93-.11-1.18-.31-.17-.14-.29-.31-.35-.52-.38-.03-.64-.12-.84-.28-.24-.18-.38-.45-.4-.74-.01-.15,0-.29.06-.43-.09-.14-.14-.3-.15-.47-.01-.19,0-.35.06-.49-.03-.06-.06-.12-.08-.19-.57-.02-.87-.12-1.09-.31-.19-.16-.36-.46-.38-.71-.07-.99,1-1.27,1.78-1.4-.06-.08-.1-.17-.13-.27-1.41.14-2,.07-2.37-.23-.19-.16-.36-.46-.37-.71-.02-.28.08-.56.27-.78.03-.03.05-.06.08-.08-.1-.04-.19-.09-.27-.16-.23-.18-.38-.44-.4-.73-.07-.03-.13-.07-.18-.12-.23-.18-.37-.44-.39-.73-.02-.28.07-.55.26-.77.09-.11.21-.2.35-.28,0-.19.07-.38.18-.55-.6,0-.94-.1-1.19-.3-.19-.16-.36-.47-.38-.72-.02-.29.08-.58.28-.81.1-.11.22-.21.38-.29-.22-.18-.35-.43-.36-.71-.01-.17,0-.32.05-.45-.08-.13-.12-.28-.13-.44-.02-.28.04-.51.17-.69-.55,0-.87-.11-1.1-.29-.19-.16-.36-.46-.37-.71-.02-.28.07-.55.26-.76.04-.05.08-.09.13-.13,0-.01,0-.03,0-.04-.02-.26.06-.52.23-.72-.4-.03-.65-.12-.86-.28-.2-.16-.37-.47-.38-.72-.02-.3.08-.58.28-.81.09-.1.2-.19.33-.26,0,0,0,0-.01,0-.2-.16-.37-.47-.38-.72-.02-.28.07-.55.26-.77.03-.03.06-.06.09-.09,0-.02,0-.03,0-.05-.06-.91.69-1.25,2.23-1.46-.05-.08-.09-.18-.12-.27-.38-.03-.63-.12-.83-.28-.17-.14-.3-.32-.35-.52-.31-.03-.53-.12-.72-.26-.24-.19-.39-.46-.41-.76-.02-.27.07-.53.24-.74-.32-.04-.55-.12-.73-.27-.23-.18-.37-.44-.39-.73-.02-.29.08-.57.28-.79.18-.2.44-.35.83-.47-.14-.17-.23-.37-.25-.6-.02-.26.06-.51.23-.72-.49-.02-.75-.12-.96-.3-.19-.16-.35-.45-.37-.7-.02-.29.08-.58.28-.81.22-.25.58-.43,1.12-.56.05-.15.12-.28.23-.4.11-.12.24-.23.42-.31-.19-.16-.35-.46-.37-.7-.02-.26.06-.51.22-.73-.02-.06-.03-.12-.03-.18-.02-.31.05-.55.21-.74-.25-.04-.45-.12-.61-.25-.24-.19-.39-.45-.41-.75-.03-.42.14-.7.41-.91-.09-.04-.17-.09-.24-.15-.19-.16-.36-.46-.38-.71-.02-.28.08-.56.27-.78.11-.13.26-.24.44-.33.02-.24.11-.47.28-.65.15-.16.35-.29.63-.4,0,0,0-.02,0-.03-.15-.17-.23-.38-.25-.6-.02-.3.08-.59.29-.82.17-.19.4-.33.74-.45,0-.02,0-.04.02-.06-.11-.15-.18-.33-.19-.53-.02-.29.08-.57.27-.79.21-.24.54-.41,1.07-.54-.12-.16-.19-.35-.21-.55-.02-.28.07-.55.26-.77.03-.04.07-.07.11-.11,0-.02,0-.04,0-.05-.02-.3.08-.58.28-.81.24-.27.64-.46,1.29-.59-.09-.15-.15-.31-.16-.49,0-.01,0-.02,0-.03-.03-.02-.07-.05-.1-.07-.24-.19-.38-.46-.4-.75-.02-.31.08-.61.3-.84.3-.33.82-.54,1.69-.69-.06-.12-.09-.25-.1-.38-.01-.2.02-.39.11-.57-.04-.11-.07-.22-.08-.34-.02-.32.09-.64.32-.89.29-.32.8-.54,1.61-.69.05-.12.13-.23.22-.33.28-.3.75-.51,1.48-.66.05-.13.13-.26.24-.37.31-.34.87-.57,1.76-.73-.03-.1-.05-.19-.06-.3-.02-.29.06-.57.22-.82,0-.03,0-.06-.01-.1-.02-.35.1-.69.35-.96.37-.39,1.06-.66,2.17-.84-.01-.06-.02-.11-.02-.17-.03-.43.12-.83.43-1.16.5-.53,1.54-.9,3.08-1.15.2-.21.49-.39.85-.55.06-.1.12-.19.21-.28.15-.16.34-.3.58-.42.05-.11.12-.22.2-.31.59-.65,2.09-.81,5.72-.95.04-.11.11-.22.19-.32.28-.32.74-.51,1.6-.64.12-.3.41-.53.76-.55.15-.01.31.02.45.09.48,0,1.81-.18,2.71-.31,2.92-.4,3.53-.45,3.99-.07.19.16.33.42.35.67.02.28-.07.55-.26.76-.04.05-.09.09-.13.13C44.99.32,48.93-.22,50.24.75c3.11-.31,4.93-.2,5.75.43.06.05.12.1.17.16.61.1,1.07.28,1.39.53.38.29.59.69.62,1.14.03.45-.13.88-.46,1.23-1.63,1.73-8.29,1.84-19.02,1.72-.05.09-.11.17-.18.25-.15.16-.35.3-.6.41.08.15.12.31.14.48.03.36-.1.71-.36.98-.13.14-.31.27-.52.38-.05.2-.16.39-.31.55-.69.75-2.49,1.01-6.18,1.11-.04.06-.08.12-.13.17-.49.53-1.58.8-3.62.95-.04.07-.09.13-.15.19-.32.35-.88.57-1.8.73-.05.11-.12.21-.21.31-.05.05-.11.11-.17.16,0,.28-.12.54-.31.76-.47.51-1.5.76-3.49.91-.01.02-.02.04-.03.05.02.07.04.15.04.23.02.3-.08.6-.29.83-.24.27-.63.45-1.25.59-.05.14-.13.28-.23.4-.18.2-.44.35-.81.47.13.16.2.36.21.57.02.29-.08.58-.28.81-.42.47-1.3.68-3.12.83,0,.02-.02.04-.03.07.04.1.07.22.08.33,0,.03,0,.05,0,.08.02.01.03.02.05.03.24.19.39.46.41.76.02.29-.08.57-.27.79-.07.08-.16.16-.26.22.03.02.06.04.08.06.23.18.37.44.39.73.02.3-.08.59-.29.82-.13.15-.31.27-.54.37.16.17.28.43.29.64.02.3-.08.59-.29.82-.24.27-.62.45-1.23.59.1.15.17.33.18.49.06.9-.68,1.26-2.2,1.47-.12.36-.45.59-.83.73.13.13.22.28.27.45,1.19-.12,1.7-.04,2.05.24.2.16.36.47.38.72.01.16-.01.31-.07.45.08.14.14.3.15.43.02.28-.07.55-.26.77-.06.07-.12.12-.19.18.01.28-.08.55-.27.76-.02.02-.05.05-.07.07,0,.02,0,.03,0,.05,0,.09,0,.17-.01.25.15.16.27.41.28.62.02.29-.08.57-.27.79-.17.19-.41.34-.76.45-.03.16-.1.32-.21.45.37.03.61.12.8.28.23.18.37.44.39.73.02.29-.08.57-.27.79-.12.14-.29.26-.51.36.18.16.33.46.35.69.02.28-.08.56-.27.77-.03.03-.06.07-.1.1.11.04.2.1.28.16.23.18.37.44.39.73.05.75-.42,1.1-1.46,1.31-.04.21-.15.39-.32.52.13.05.24.11.34.18.23.18.37.44.39.73.01.16-.01.31-.07.45.03.06.06.12.08.18.87-.05,1.29.04,1.6.28.2.16.37.47.38.72.02.29-.08.58-.28.81-.27.3-.71.49-1.47.63.09.14.15.31.16.48,0,.12,0,.24-.04.35.07.1.13.21.16.32h0c.63,0,.97.1,1.22.3.19.16.36.46.38.71.02.28-.07.55-.26.77-.25.29-.65.47-1.36.6-.03.12-.08.23-.15.33.45.02.72.11.94.29.16.13.28.3.34.49.48.01.82.09,1.08.28.24.18.38.45.4.74.02.24-.05.47-.18.67.01.03.02.06.03.09.26.04.46.12.62.25.23.18.37.44.39.73.02.29-.08.57-.27.79-.26.3-.71.49-1.47.62.09.14.14.3.15.47.02.23-.04.45-.16.64.52.02.84.09,1.09.29.19.14.31.33.37.55.57.01.89.11,1.12.3.19.16.36.46.37.71.05.77-.59,1.1-1.22,1.27-.02.1-.05.19-.09.28.01.03.02.07.03.1,1.84-.2,2.41-.12,2.8.19.19.16.36.46.37.71.02.29-.08.58-.28.8-.1.11-.22.2-.37.29.23.18.37.44.39.73.02.23-.04.46-.17.65,1.32-.13,1.89-.05,2.25.25.23.18.37.44.39.73.01.19-.03.38-.11.55.01.03.02.05.03.08.88-.07,1.36.02,1.69.28.24.19.38.45.4.75.01.21-.03.41-.12.59.96-.06,1.45.05,1.78.31.24.19.38.46.4.75.02.3-.08.59-.29.82-.02.02-.03.04-.05.05.02.01.04.03.06.04.17.12.29.28.37.46,1.55-.18,2.39-.12,2.86.25.17.13.29.3.36.48.23.06.42.15.58.27.16.12.29.28.37.45,3.59-.52,5.35-.58,6.09.01.23.18.38.42.44.69,1.49.01,3.07.04,4.74.06.53-.09,1.04-.18,1.55-.27,14.03-2.44,22.73-3.84,24.9-2.14.39.31.62.71.65,1.18.03.48-.14.93-.49,1.31-.57.6-1.7,1.02-3.35,1.3-.35.27-.84.5-1.47.69-.03.34-.18.66-.44.94-.56.6-1.77.99-3.56,1.25-.08.06-.18.12-.28.17-.07.19-.17.38-.32.54-.45.48-1.31.8-2.68,1-.01.01-.02.03-.04.04-1.04,1.12-4.47,1.3-11.89,1.32-1.08.17-2.16.36-3.1.52-4.45.76-7.25,1.2-8.96,1.2ZM61.34,69.58s.05.04.08.06c.04.03.08.06.11.09.2-.02.4-.04.59-.05-.22-.05-.48-.08-.78-.1ZM63.69,68.43s.09.06.13.09c.28.22.48.49.58.8.67-.15,1.14-.34,1.35-.57-.33-.22-1.06-.32-2.07-.33Z"/>
      </g>
    </g>
  </g>
</svg>